<svg width="32" height="32" viewBox="0 0 32 32" fill="none" xmlns="http://www.w3.org/2000/svg">
  <!-- Coffee cup base -->
  <path d="M6 12V24C6 25.1046 6.89543 26 8 26H22C23.1046 26 24 25.1046 24 24V12H6Z" fill="#8B4513" stroke="#654321" stroke-width="1"/>
  
  <!-- Coffee cup handle -->
  <path d="M24 14V18C24 19.6569 25.3431 21 27 21C28.6569 21 30 19.6569 30 18V16C30 14.8954 29.1046 14 28 14H24Z" fill="none" stroke="#8B4513" stroke-width="2"/>
  
  <!-- Coffee liquid -->
  <ellipse cx="15" cy="14" rx="8" ry="2" fill="#654321"/>
  
  <!-- Steam lines -->
  <path d="M12 8C12 6 13 5 14 6C15 7 14 8 15 8C16 8 15 7 16 6C17 5 18 6 18 8" stroke="#D2691E" stroke-width="1.5" stroke-linecap="round" fill="none"/>
  <path d="M10 5C10 3 11 2 12 3C13 4 12 5 13 5C14 5 13 4 14 3C15 2 16 3 16 5" stroke="#D2691E" stroke-width="1.5" stroke-linecap="round" fill="none"/>
  
  <!-- Coffee beans decoration -->
  <ellipse cx="8" cy="16" rx="1.5" ry="2.5" fill="#654321" transform="rotate(15 8 16)"/>
  <ellipse cx="22" cy="18" rx="1.5" ry="2.5" fill="#654321" transform="rotate(-15 22 18)"/>
  
  <!-- Bean center lines -->
  <line x1="8" y1="14" x2="8" y2="18" stroke="#8B4513" stroke-width="0.5"/>
  <line x1="22" y1="16" x2="22" y2="20" stroke="#8B4513" stroke-width="0.5"/>
</svg>